<svg viewBox="0 0 240 130" xmlns="http://www.w3.org/2000/svg" fill="currentColor" aria-hidden="true">
  <g>
    <path d="M153.26,114.93 L229.55,98.71 L221.73,75.15 L150.88,107.78 Z"/><path d="M150.47,106.92 L220.38,72.33 L206.97,51.43 L146.40,100.58 Z"/><path d="M145.79,99.85 L204.97,49.03 L186.81,32.11 L140.28,94.71 Z"/><path d="M139.51,94.16 L184.27,30.28 L162.48,18.37 L132.90,90.54 Z"/><path d="M132.01,90.19 L159.57,17.22 L135.52,11.08 L124.71,88.33 Z"/><path d="M123.77,88.21 L132.41,10.69 L107.59,10.69 L116.23,88.21 Z"/><path d="M115.29,88.33 L104.48,11.08 L80.43,17.22 L107.99,90.19 Z"/><path d="M107.10,90.54 L77.52,18.37 L55.73,30.28 L100.49,94.16 Z"/><path d="M99.72,94.71 L53.19,32.11 L35.03,49.03 L94.21,99.85 Z"/><path d="M93.60,100.58 L33.03,51.43 L19.62,72.33 L89.53,106.92 Z"/><path d="M89.12,107.78 L18.27,75.15 L10.45,98.71 L86.74,114.93 Z"/>
  </g>
  <g stroke="currentColor" stroke-width="1.4" fill="none">
    <line x1="127.73" y1="119.93" x2="148.98" y2="114.24"/><line x1="127.10" y1="118.31" x2="146.61" y2="108.15"/><line x1="126.13" y1="116.86" x2="142.98" y2="102.72"/><line x1="124.87" y1="115.65" x2="138.26" y2="98.20"/><line x1="123.38" y1="114.75" x2="132.68" y2="94.81"/><line x1="121.73" y1="114.19" x2="126.49" y2="92.71"/><line x1="120.00" y1="114.00" x2="120.00" y2="92.00"/><line x1="118.27" y1="114.19" x2="113.51" y2="92.71"/><line x1="116.62" y1="114.75" x2="107.32" y2="94.81"/><line x1="115.13" y1="115.65" x2="101.74" y2="98.20"/><line x1="113.87" y1="116.86" x2="97.02" y2="102.72"/><line x1="112.90" y1="118.31" x2="93.39" y2="108.15"/><line x1="112.27" y1="119.93" x2="91.02" y2="114.24"/>
  </g>
</svg>